<svg width="393" height="133" viewBox="0 0 393 133" fill="none" xmlns="http://www.w3.org/2000/svg">
<g clip-path="url(#clip0_16_2)">
<path d="M127.04 117.61L133.66 104.96H136.66V124.11H133.57V109.77L133.73 110.61L128.18 121.45H125.98L120.44 110.88L120.59 109.77V124.11H117.51V104.96H120.51L127.04 117.61Z" fill="#FF0000"/>
<path d="M142.2 124.11V104.96H145.36V124.11H142.2ZM143.73 107.52V104.96H156.68V107.52H143.73ZM143.73 115.88V113.33H154.96V115.88H143.73ZM143.73 124.11V121.56H156.68V124.11H143.73Z" fill="#FF0000"/>
<path d="M161.16 124.11V104.96H164.32V124.11H161.16ZM163.3 124.11V121.56H168.4C169.775 121.647 171.138 121.259 172.26 120.46C172.717 120.088 173.079 119.613 173.317 119.075C173.556 118.536 173.663 117.948 173.63 117.36V111.72C173.663 111.132 173.556 110.544 173.317 110.005C173.079 109.467 172.717 108.992 172.26 108.62C171.138 107.821 169.775 107.433 168.4 107.52H163.3V104.96H168.3C170.554 104.817 172.788 105.453 174.63 106.76C175.375 107.37 175.965 108.147 176.355 109.028C176.744 109.909 176.92 110.869 176.87 111.83V117.25C176.916 118.559 176.567 119.851 175.87 120.96C175.156 122.017 174.137 122.833 172.95 123.3C171.469 123.875 169.888 124.151 168.3 124.11H163.3Z" fill="#FF0000"/>
<path d="M184.84 104.96V124.11H181.68V104.96H184.84Z" fill="#FF0000"/>
<path d="M187.93 124.11L196.24 104.96H198.93L207.24 124.11H203.83L197.59 108.67L191.34 124.11H187.93ZM191.76 119.91V117.36H203.61V119.91H191.76Z" fill="#FF0000"/>
<path d="M225.94 124.31C224.904 124.313 223.871 124.226 222.85 124.05C221.921 123.883 221.013 123.618 220.14 123.26C219.303 122.911 218.508 122.468 217.77 121.94L219.77 119.94C220.63 120.57 221.59 121.05 222.61 121.36C223.701 121.68 224.833 121.839 225.97 121.83C227.283 121.9 228.591 121.632 229.77 121.05C230.175 120.851 230.515 120.542 230.752 120.158C230.989 119.774 231.113 119.331 231.11 118.88C231.135 118.568 231.087 118.254 230.969 117.964C230.851 117.674 230.666 117.416 230.43 117.21C229.909 116.786 229.296 116.488 228.64 116.34C227.843 116.14 227.035 115.986 226.22 115.88C225.37 115.75 224.52 115.61 223.65 115.44C222.83 115.283 222.033 115.021 221.28 114.66C220.567 114.315 219.962 113.783 219.53 113.12C219.052 112.314 218.822 111.386 218.87 110.45C218.837 109.638 219.012 108.831 219.38 108.106C219.748 107.381 220.295 106.763 220.97 106.31C222.74 105.229 224.799 104.716 226.87 104.84C228.07 104.837 229.265 105.002 230.42 105.33C231.608 105.674 232.743 106.182 233.79 106.84L232 108.97C231.2 108.456 230.336 108.049 229.43 107.76C228.601 107.503 227.738 107.371 226.87 107.37C225.625 107.301 224.384 107.571 223.28 108.15C222.884 108.368 222.555 108.69 222.33 109.081C222.104 109.472 221.99 109.918 222 110.37C221.986 110.685 222.047 110.998 222.177 111.285C222.308 111.572 222.504 111.823 222.75 112.02C223.328 112.435 223.991 112.718 224.69 112.85C225.49 113.03 226.35 113.2 227.27 113.36C228.1 113.5 228.92 113.67 229.75 113.87C230.535 114.051 231.291 114.337 232 114.72C232.666 115.086 233.227 115.616 233.63 116.26C234.07 117.032 234.282 117.913 234.24 118.8C234.269 119.612 234.084 120.418 233.703 121.136C233.322 121.854 232.759 122.459 232.07 122.89C230.211 123.957 228.079 124.451 225.94 124.31Z" fill="#FF0000"/>
<path d="M238.4 124.11V104.96H241.56V124.11H238.4ZM239.93 107.52V104.96H252.87V107.52H239.93ZM239.93 115.88V113.33H251.17V115.88H239.93ZM239.93 124.11V121.56H252.87V124.11H239.93Z" fill="#FF0000"/>
<path d="M257.36 124.11V104.95H260.52V124.11H257.36ZM258.74 116.01V113.46H266.43C266.835 113.48 267.239 113.417 267.619 113.276C267.999 113.135 268.346 112.919 268.64 112.64C268.923 112.358 269.144 112.021 269.289 111.649C269.433 111.277 269.499 110.879 269.48 110.48C269.497 110.081 269.431 109.684 269.286 109.312C269.141 108.94 268.922 108.603 268.64 108.32C268.345 108.043 267.998 107.828 267.618 107.689C267.238 107.55 266.834 107.489 266.43 107.51H258.74V104.95H266.3C267.484 104.923 268.659 105.158 269.74 105.64C270.669 106.057 271.462 106.725 272.03 107.57C272.581 108.439 272.863 109.451 272.84 110.48C272.865 111.51 272.579 112.524 272.02 113.39C271.452 114.235 270.659 114.904 269.73 115.32C268.652 115.8 267.48 116.036 266.3 116.01H258.74ZM270.04 124.11L264.88 115.42L268.02 114.82L273.79 124.11H270.04Z" fill="#FF0000"/>
<path d="M282.91 124.11L275.57 104.96H279.01L284.41 119.96L289.82 104.96H293.26L285.92 124.11H282.91Z" fill="#FF0000"/>
<path d="M296.68 124.11V104.96H299.84V124.11H296.68ZM298.21 107.52V104.96H311.15V107.52H298.21ZM298.21 115.88V113.33H309.45V115.88H298.21ZM298.21 124.11V121.56H311.15V124.11H298.21Z" fill="#FF0000"/>
<path d="M315.68 124.11V104.95H318.85V124.11H315.68ZM317.06 116.01V113.46H324.68C325.085 113.48 325.489 113.417 325.869 113.276C326.249 113.135 326.596 112.919 326.89 112.64C327.173 112.358 327.394 112.021 327.539 111.649C327.683 111.277 327.748 110.879 327.73 110.48C327.747 110.081 327.68 109.684 327.536 109.312C327.391 108.94 327.171 108.603 326.89 108.32C326.595 108.043 326.247 107.828 325.868 107.689C325.488 107.55 325.084 107.489 324.68 107.51H316.99V104.95H324.55C325.734 104.923 326.909 105.158 327.99 105.64C328.92 106.054 329.714 106.723 330.28 107.57C330.831 108.439 331.113 109.451 331.09 110.48C331.115 111.51 330.829 112.524 330.27 113.39C329.704 114.232 328.914 114.901 327.99 115.32C326.909 115.802 325.734 116.037 324.55 116.01H317.06ZM328.36 124.11L323.2 115.42L326.34 114.82L332.11 124.11H328.36Z" fill="#FF0000"/>
<path d="M339.22 112.04L392.31 114.54L339.22 117.04V112.04Z" fill="#FF0000"/>
<path d="M108.21 117.04L55.13 114.54L108.21 112.04V117.04Z" fill="#FF0000"/>
<path d="M114.31 18.7599H148.1C155.433 18.7599 160.947 20.8334 164.64 24.98C168.333 29.1267 170.167 35.0267 170.14 42.68C170.14 50.54 168.14 56.6866 164.14 61.1199C160.14 65.5533 154.043 67.7666 145.85 67.7599H134.72V96.68H114.3L114.31 18.7599ZM134.73 51.98H139.73C143.65 51.98 146.403 51.1733 147.99 49.56C148.782 48.741 149.401 47.7709 149.81 46.7073C150.219 45.6438 150.409 44.5087 150.37 43.3699C150.435 41.1173 149.702 38.9141 148.3 37.15C146.933 35.45 144.347 34.6 140.54 34.6H134.75L134.73 51.98Z" fill="url(#paint0_linear_16_2)"/>
<path d="M180.77 18.7599H201.1V77.4901H232.83V96.68H180.77V18.7599Z" fill="url(#paint1_linear_16_2)"/>
<path d="M242.03 18.7599H296.51V35.4H262.4V47.78H294.04V63.67H262.4V79.03H297.5V96.68H242.03V18.7599Z" fill="url(#paint2_linear_16_2)"/>
<path d="M353.77 56.33L331.62 18.76H304.4L329.48 56.07L301.9 96.68H329.5L345.28 71.65L353.77 56.33Z" fill="url(#paint3_linear_16_2)"/>
<path d="M361.61 56.5L386.49 18.76H359.55L348.18 37.62L359.51 56.41L348.18 76.23L361.08 96.68H388.84L361.61 56.5Z" fill="url(#paint4_linear_16_2)"/>
<path d="M93.8799 10.58C87.0466 3.52668 76.7633 -6.10352e-05 63.03 -6.10352e-05H0.0299683V132.52H0.360046L38.1199 115.3V26.94H48.92C56 26.94 60.8266 28.3866 63.4 31.28C65.9746 34.1892 67.3504 37.9665 67.2499 41.85C67.3096 43.8226 66.9439 45.7849 66.1778 47.6036C65.4117 49.4223 64.2631 51.0546 62.81 52.39C59.85 55.13 54.7166 56.4999 47.41 56.4999H45.16V83.35H58.8799C74.1666 83.35 85.5367 79.5833 92.9901 72.05C100.443 64.5167 104.17 54.06 104.17 40.68C104.15 27.68 100.72 17.6467 93.8799 10.58Z" fill="url(#paint5_linear_16_2)"/>
</g>
<defs>
<linearGradient id="paint0_linear_16_2" x1="142.48" y1="103.32" x2="142.08" y2="50.1" gradientUnits="userSpaceOnUse">
<stop stop-color="#939598"/>
<stop offset="0.44" stop-color="#C3C5C6"/>
<stop offset="0.8" stop-color="#E4E6E6"/>
<stop offset="1" stop-color="#F1F2F2"/>
</linearGradient>
<linearGradient id="paint1_linear_16_2" x1="206.92" y1="102.83" x2="206.52" y2="49.61" gradientUnits="userSpaceOnUse">
<stop stop-color="#939598"/>
<stop offset="0.44" stop-color="#C3C5C6"/>
<stop offset="0.8" stop-color="#E4E6E6"/>
<stop offset="1" stop-color="#F1F2F2"/>
</linearGradient>
<linearGradient id="paint2_linear_16_2" x1="269.87" y1="102.35" x2="269.47" y2="49.13" gradientUnits="userSpaceOnUse">
<stop stop-color="#939598"/>
<stop offset="0.44" stop-color="#C3C5C6"/>
<stop offset="0.8" stop-color="#E4E6E6"/>
<stop offset="1" stop-color="#F1F2F2"/>
</linearGradient>
<linearGradient id="paint3_linear_16_2" x1="328.03" y1="101.91" x2="327.62" y2="48.68" gradientUnits="userSpaceOnUse">
<stop stop-color="#939598"/>
<stop offset="0.44" stop-color="#C3C5C6"/>
<stop offset="0.8" stop-color="#E4E6E6"/>
<stop offset="1" stop-color="#F1F2F2"/>
</linearGradient>
<linearGradient id="paint4_linear_16_2" x1="348.18" y1="57.72" x2="388.84" y2="57.72" gradientUnits="userSpaceOnUse">
<stop offset="0.28" stop-color="#FF3333"/>
<stop offset="1" stop-color="#990000"/>
</linearGradient>
<linearGradient id="paint5_linear_16_2" x1="51.72" y1="7.73994" x2="52.19" y2="113.63" gradientUnits="userSpaceOnUse">
<stop offset="0.28" stop-color="#FF3333"/>
<stop offset="1" stop-color="#990000"/>
</linearGradient>
<clipPath id="clip0_16_2">
<rect width="392.3" height="132.52" fill="white"/>
</clipPath>
</defs>
</svg>
