<svg width="390" height="133" viewBox="0 0 390 133" fill="none" xmlns="http://www.w3.org/2000/svg">
<path d="M123.95 123.33L130.56 110.68H133.56V129.83H130.48V115.49L130.63 116.33L125.08 127.14H122.88L117.33 116.57L117.48 115.46V129.8H114.4V110.65H117.4L123.95 123.33Z" fill="#39B54A"/>
<path d="M139.08 129.83V110.68H142.24V129.83H139.08ZM140.61 113.24V110.68H153.55V113.24H140.61ZM140.61 121.6V119.04H151.85V121.6H140.61ZM140.61 129.83V127.28H153.55V129.83H140.61Z" fill="#39B54A"/>
<path d="M158.08 129.83V110.68H161.24V129.83H158.08ZM160.22 129.83V127.28H165.32C166.695 127.367 168.058 126.979 169.18 126.18C169.638 125.807 170.002 125.33 170.242 124.79C170.482 124.25 170.591 123.66 170.56 123.07V117.44C170.592 116.851 170.484 116.263 170.244 115.724C170.004 115.185 169.639 114.71 169.18 114.34C168.058 113.541 166.695 113.153 165.32 113.24H160.22V110.68H165.22C167.471 110.539 169.701 111.174 171.54 112.48C172.285 113.088 172.876 113.863 173.266 114.742C173.655 115.621 173.831 116.58 173.78 117.54V122.97C173.82 124.278 173.472 125.569 172.78 126.68C172.059 127.736 171.039 128.551 169.85 129.02C168.369 129.595 166.788 129.87 165.2 129.83H160.22Z" fill="#39B54A"/>
<path d="M181.74 110.68V129.83H178.58V110.68H181.74Z" fill="#39B54A"/>
<path d="M184.84 129.83L193.14 110.68H195.84L204.14 129.83H200.73L194.49 114.38L188.24 129.83H184.84ZM188.66 125.63V123.07H200.52V125.63H188.66Z" fill="#39B54A"/>
<path d="M222.84 130.03C221.804 130.035 220.77 129.944 219.75 129.76C218.819 129.601 217.91 129.336 217.04 128.97C216.207 128.623 215.415 128.184 214.68 127.66L216.68 125.6C217.534 126.237 218.491 126.721 219.51 127.03C220.601 127.35 221.733 127.509 222.87 127.5C224.183 127.571 225.491 127.303 226.67 126.72C227.077 126.522 227.419 126.214 227.658 125.83C227.897 125.446 228.022 125.002 228.02 124.55C228.039 124.236 227.987 123.922 227.868 123.631C227.748 123.34 227.564 123.08 227.33 122.87C226.808 122.454 226.2 122.161 225.55 122.01C224.749 121.811 223.938 121.655 223.12 121.54C222.27 121.42 221.42 121.28 220.56 121.11C219.736 120.955 218.936 120.692 218.18 120.33C217.467 119.985 216.862 119.453 216.43 118.79C215.962 117.981 215.736 117.054 215.78 116.12C215.745 115.307 215.918 114.499 216.284 113.773C216.65 113.046 217.196 112.426 217.87 111.97C219.643 110.896 221.701 110.387 223.77 110.51C224.97 110.507 226.165 110.672 227.32 111C228.511 111.344 229.649 111.852 230.7 112.51L228.9 114.64C228.104 114.126 227.243 113.719 226.34 113.43C225.508 113.17 224.642 113.036 223.77 113.03C222.527 112.964 221.289 113.237 220.19 113.82C219.792 114.036 219.462 114.357 219.237 114.749C219.011 115.141 218.898 115.588 218.91 116.04C218.89 116.355 218.947 116.669 219.076 116.957C219.205 117.244 219.402 117.496 219.65 117.69C220.232 118.099 220.892 118.382 221.59 118.52C222.403 118.7 223.263 118.87 224.17 119.03C225 119.17 225.83 119.34 226.65 119.54C227.439 119.718 228.199 120.004 228.91 120.39C229.575 120.754 230.133 121.284 230.53 121.93C230.974 122.701 231.189 123.582 231.15 124.47C231.178 125.283 230.992 126.09 230.611 126.809C230.231 127.529 229.668 128.136 228.98 128.57C227.122 129.651 224.986 130.159 222.84 130.03Z" fill="#39B54A"/>
<path d="M235.3 129.83V110.68H238.46V129.83H235.3ZM236.83 113.24V110.68H249.77V113.24H236.83ZM236.83 121.6V119.04H248.08V121.6H236.83ZM236.83 129.83V127.28H249.77V129.83H236.83Z" fill="#39B54A"/>
<path d="M254.27 129.83V110.67H257.43V129.83H254.27ZM255.64 121.73V119.14H263.33C263.736 119.157 264.141 119.093 264.522 118.952C264.903 118.812 265.253 118.597 265.55 118.32C265.83 118.037 266.048 117.698 266.191 117.327C266.333 116.955 266.398 116.558 266.38 116.16C266.396 115.762 266.331 115.366 266.188 114.994C266.045 114.623 265.828 114.284 265.55 114C265.253 113.723 264.903 113.508 264.522 113.367C264.141 113.227 263.736 113.163 263.33 113.18H255.64V110.63H263.2C264.384 110.603 265.559 110.838 266.64 111.32C267.57 111.734 268.364 112.403 268.93 113.25C269.481 114.119 269.763 115.131 269.74 116.16C269.764 117.187 269.479 118.198 268.92 119.06C268.354 119.905 267.565 120.577 266.64 121C265.559 121.482 264.384 121.717 263.2 121.69L255.64 121.73ZM266.94 129.83L261.78 121.14L264.92 120.53L270.69 129.83H266.94Z" fill="#39B54A"/>
<path d="M279.81 129.83L272.47 110.68H275.91L281.32 125.68L286.73 110.68H290.16L282.82 129.83H279.81Z" fill="#39B54A"/>
<path d="M293.57 129.83V110.68H296.73V129.83H293.57ZM295.08 113.24V110.68H308.08V113.24H295.08ZM295.08 121.6V119.04H306.31V121.6H295.08ZM295.08 129.83V127.28H308.08V129.83H295.08Z" fill="#39B54A"/>
<path d="M312.54 129.83V110.67H315.7V129.83H312.54ZM313.92 121.73V119.14H321.6C322.006 119.157 322.411 119.093 322.792 118.952C323.173 118.812 323.523 118.597 323.82 118.32C324.101 118.038 324.32 117.7 324.463 117.328C324.606 116.956 324.67 116.558 324.65 116.16C324.668 115.762 324.603 115.365 324.461 114.993C324.318 114.622 324.1 114.283 323.82 114C323.523 113.723 323.173 113.508 322.792 113.367C322.411 113.227 322.006 113.163 321.6 113.18H313.92V110.63H321.48C322.664 110.603 323.838 110.838 324.92 111.32C325.846 111.737 326.636 112.406 327.2 113.25C327.739 114.123 328.024 115.129 328.024 116.155C328.024 117.181 327.739 118.187 327.2 119.06C326.639 119.91 325.848 120.582 324.92 121C323.842 121.48 322.67 121.716 321.49 121.69L313.92 121.73ZM325.21 129.83L320.08 121.14L323.23 120.53L328.99 129.83H325.21Z" fill="#39B54A"/>
<path d="M336.12 118.76L389.21 120.26L336.12 121.76V118.76Z" fill="url(#paint0_linear_24_2)"/>
<path d="M105.11 121.76L52.0299 120.26L105.11 118.76V121.76Z" fill="url(#paint1_linear_24_2)"/>
<path d="M114.27 18.76H148.08C155.413 18.76 160.923 20.8334 164.61 24.98C168.297 29.1267 170.13 35.0267 170.11 42.68C170.11 50.54 168.11 56.6867 164.11 61.12C160.11 65.5533 154.013 67.7667 145.82 67.76H134.69V96.6801H114.27V18.76ZM134.69 51.98H139.69C143.61 51.98 146.363 51.1733 147.95 49.56C148.744 48.7424 149.364 47.7724 149.773 46.7086C150.183 45.6447 150.372 44.509 150.33 43.37C150.395 41.1191 149.666 38.9172 148.27 37.15C146.89 35.45 144.3 34.6 140.5 34.6H134.71L134.69 51.98Z" fill="url(#paint2_linear_24_2)"/>
<path d="M180.74 18.76H201.08V77.49H232.81V96.6801H180.81L180.74 18.76Z" fill="url(#paint3_linear_24_2)"/>
<path d="M241.99 18.76H296.47V35.39H262.37V47.78H294V63.67H262.37V79.03H297.46V96.6801H241.99V18.76Z" fill="url(#paint4_linear_24_2)"/>
<path d="M353.73 56.33L331.58 18.76H304.36L329.44 56.07L301.86 96.68H329.46L345.24 71.65L353.73 56.33Z" fill="url(#paint5_linear_24_2)"/>
<path d="M361.57 56.5L386.45 18.76H359.51L348.14 37.62L359.47 56.41L348.14 76.23L361.04 96.68H388.8L361.57 56.5Z" fill="url(#paint6_linear_24_2)"/>
<path d="M93.84 10.58C87.0133 3.52668 76.7333 0 63 0H0V132.52H0.340004L38.08 115.3V26.94H48.88C55.9733 26.94 60.8 28.3867 63.36 31.28C65.9364 34.1882 67.3125 37.9661 67.21 41.85C67.2701 43.8203 66.9056 45.7803 66.1413 47.5972C65.3769 49.4141 64.2305 51.0453 62.78 52.38C59.82 55.1333 54.6833 56.5067 47.37 56.5H45.08V83.34H58.8C74.0933 83.34 85.4633 79.5767 92.91 72.05C100.357 64.5233 104.08 54.0667 104.08 40.68C104.08 27.6533 100.667 17.62 93.84 10.58Z" fill="url(#paint7_linear_24_2)"/>
<defs>
<linearGradient id="paint0_linear_24_2" x1="336.12" y1="120.26" x2="389.21" y2="120.26" gradientUnits="userSpaceOnUse">
<stop stop-color="#39B54A"/>
<stop offset="1" stop-color="#D7DF23"/>
</linearGradient>
<linearGradient id="paint1_linear_24_2" x1="105.11" y1="120.26" x2="52.0299" y2="120.26" gradientUnits="userSpaceOnUse">
<stop stop-color="#39B54A"/>
<stop offset="1" stop-color="#D7DF23"/>
</linearGradient>
<linearGradient id="paint2_linear_24_2" x1="142.44" y1="103.32" x2="142.04" y2="50.1" gradientUnits="userSpaceOnUse">
<stop stop-color="#939598"/>
<stop offset="0.44" stop-color="#C3C5C6"/>
<stop offset="0.8" stop-color="#E4E6E6"/>
<stop offset="1" stop-color="#F1F2F2"/>
</linearGradient>
<linearGradient id="paint3_linear_24_2" x1="206.88" y1="102.83" x2="206.48" y2="49.61" gradientUnits="userSpaceOnUse">
<stop stop-color="#939598"/>
<stop offset="0.44" stop-color="#C3C5C6"/>
<stop offset="0.8" stop-color="#E4E6E6"/>
<stop offset="1" stop-color="#F1F2F2"/>
</linearGradient>
<linearGradient id="paint4_linear_24_2" x1="269.84" y1="102.35" x2="269.43" y2="49.13" gradientUnits="userSpaceOnUse">
<stop stop-color="#939598"/>
<stop offset="0.44" stop-color="#C3C5C6"/>
<stop offset="0.8" stop-color="#E4E6E6"/>
<stop offset="1" stop-color="#F1F2F2"/>
</linearGradient>
<linearGradient id="paint5_linear_24_2" x1="327.99" y1="101.91" x2="327.58" y2="48.68" gradientUnits="userSpaceOnUse">
<stop stop-color="#939598"/>
<stop offset="0.44" stop-color="#C3C5C6"/>
<stop offset="0.8" stop-color="#E4E6E6"/>
<stop offset="1" stop-color="#F1F2F2"/>
</linearGradient>
<linearGradient id="paint6_linear_24_2" x1="348.14" y1="57.72" x2="388.8" y2="57.72" gradientUnits="userSpaceOnUse">
<stop offset="0.21" stop-color="#8DC63F"/>
<stop offset="1" stop-color="#006838"/>
</linearGradient>
<linearGradient id="paint7_linear_24_2" x1="52.03" y1="-6.76" x2="52.03" y2="132.46" gradientUnits="userSpaceOnUse">
<stop offset="0.27" stop-color="#8DC63F"/>
<stop offset="1" stop-color="#006838"/>
</linearGradient>
</defs>
</svg>
